# xmcd CD database file
#
# Track frame offsets:
#	150
#	19853
#	36882
#	52308
#	66421
#	84057
#	94823
#	114096
#	133470
#	150423
#	166109
#	184510
#
# Disc length: 2724 seconds
#
# Revision: 0
# Processed by: cddbd v1.5.2PL0 Copyright (c) Steve Scherf et al.
# Submitted via: CDex 1.70beta2
#
DISCID=950aa20c
DTITLE=Mac Davis - The Best of Mac Davis
DYEAR=1900
DGENRE=Country
TTITLE0=It's Hard to Be Humble
TTITLE1=Hooked on Music
TTITLE2=Stop and Smell the Roses
TTITLE3=Baby Don't Get Hooked on Me
TTITLE4=Rodeo Clown
TTITLE5=You're My Bestest Friend
TTITLE6=Secrets
TTITLE7=Texas in My Rear View Mirror
TTITLE8=Let's Keep It That Way
TTITLE9=Midnight Crazy
TTITLE10=Shame on the Moon
TTITLE11=Most of All
EXTD=
EXTT0=
EXTT1=
EXTT2=
EXTT3=
EXTT4=
EXTT5=
EXTT6=
EXTT7=
EXTT8=
EXTT9=
EXTT10=
EXTT11=
PLAYORDER=
